<svg width="26" height="26" viewBox="0 0 26 26" fill="none" xmlns="http://www.w3.org/2000/svg">
<g id="heart 1">
<path id="Vector" d="M22.5766 4.99468C22.0233 4.4411 21.3663 4.00196 20.6433 3.70235C19.9202 3.40274 19.1452 3.24854 18.3625 3.24854C17.5798 3.24854 16.8047 3.40274 16.0817 3.70235C15.3586 4.00196 14.7016 4.4411 14.1483 4.99468L13 6.14301L11.8516 4.99468C10.734 3.87701 9.21809 3.24911 7.63747 3.24911C6.05685 3.24911 4.54097 3.87701 3.4233 4.99468C2.30563 6.11235 1.67773 7.62823 1.67773 9.20885C1.67773 10.7895 2.30563 12.3053 3.4233 13.423L4.57163 14.5713L13 22.9997L21.4283 14.5713L22.5766 13.423C23.1302 12.8697 23.5693 12.2127 23.869 11.4896C24.1686 10.7666 24.3228 9.99154 24.3228 9.20885C24.3228 8.42615 24.1686 7.65113 23.869 6.92804C23.5693 6.20496 23.1302 5.548 22.5766 4.99468V4.99468Z" stroke="#FF2626" stroke-width="1.50635" stroke-linecap="round" stroke-linejoin="round"/>
</g>
</svg>
